<svg xmlns="http://www.w3.org/2000/svg" viewBox="0 0 512 512">
  <rect width="512" height="512" rx="64" fill="#16a34a"/>
  <path d="M256 96c-88.4 0-160 71.6-160 160s71.6 160 160 160 160-71.6 160-160-71.6-160-160-160zm0 288c-70.7 0-128-57.3-128-128s57.3-128 128-128 128 57.3 128 128-57.3 128-128 128z" fill="white" opacity="0.9"/>
  <path d="M256 160c-53 0-96 43-96 96s43 96 96 96 96-43 96-96-43-96-96-96zm0 160c-35.3 0-64-28.7-64-64s28.7-64 64-64 64 28.7 64 64-28.7 64-64 64z" fill="white" opacity="0.9"/>
  <path d="M240 208l32 0 0 96-32 0z" fill="white"/>
  <path d="M208 240l96 0 0 32-96 0z" fill="white"/>
  <path d="M176 144l48 0 0 32-48 0zM288 144l48 0 0 32-48 0zM176 336l48 0 0 32-48 0zM288 336l48 0 0 32-48 0z" fill="white" opacity="0.6"/>
  <path d="M160 256c0-53 43-96 96-96" fill="none" stroke="white" stroke-width="8" stroke-linecap="round" opacity="0.3"/>
  <path d="M352 256c0 53-43 96-96 96" fill="none" stroke="white" stroke-width="8" stroke-linecap="round" opacity="0.3"/>
</svg>
